<?xml version="1.0" encoding="UTF-8"?>
<svg width="80px" height="68px" viewBox="0 0 80 68" version="1.1" xmlns="http://www.w3.org/2000/svg" xmlns:xlink="http://www.w3.org/1999/xlink">
    <!-- Generator: Sketch 52.6 (67491) - http://www.bohemiancoding.com/sketch -->
    <title>event</title>
    <desc>Created with Sketch.</desc>
    <g id="Page-1" stroke="none" stroke-width="1" fill="none" fill-rule="evenodd">
        <g id="26-copy-2" transform="translate(-18.000000, -24.000000)">
            <g id="event" transform="translate(18.000000, 24.000000)">
                <path d="M28.8230337,26.224407 C26.1905431,26.224407 24.0488452,28.3661049 24.0488452,30.9985955 C24.0488452,33.6310861 26.1905431,35.772784 28.8230337,35.772784 C31.4555243,35.772784 33.5972222,33.6310861 33.5972222,30.9985955 C33.5972222,28.3661049 31.4555243,26.224407 28.8230337,26.224407 Z M28.8230337,33.431804 C27.4812734,33.431804 26.3898252,32.3403558 26.3898252,30.9985955 C26.3898252,29.6568352 27.4812734,28.565387 28.8230337,28.565387 C30.164638,28.565387 31.2562422,29.6568352 31.2562422,30.9985955 C31.2562422,32.3401998 30.164638,33.431804 28.8230337,33.431804 Z" id="Shape" fill="#000044" fill-rule="nonzero"></path>
                <path d="M41.269819,26.224407 C38.6373283,26.224407 36.4954744,28.3661049 36.4954744,30.9985955 C36.4954744,33.6310861 38.6373283,35.772784 41.269819,35.772784 C43.9023096,35.772784 46.0440075,33.6310861 46.0440075,30.9985955 C46.0440075,28.3661049 43.9023096,26.224407 41.269819,26.224407 Z M41.269819,33.431804 C39.9279026,33.431804 38.8364544,32.3403558 38.8364544,30.9985955 C38.8364544,29.6568352 39.9280587,28.565387 41.269819,28.565387 C42.6115793,28.565387 43.7030275,29.6568352 43.7030275,30.9985955 C43.7030275,32.3403558 42.6114232,33.431804 41.269819,33.431804 Z" id="Shape" fill="#000044" fill-rule="nonzero"></path>
                <path d="M53.7166042,26.224407 C51.0841136,26.224407 48.9424157,28.3661049 48.9424157,30.9985955 C48.9424157,33.6310861 51.0841136,35.772784 53.7166042,35.772784 C56.3490949,35.772784 58.4907928,33.6310861 58.4907928,30.9985955 C58.4907928,28.3661049 56.3489388,26.224407 53.7166042,26.224407 Z M53.7166042,33.431804 C52.3748439,33.431804 51.2833958,32.3403558 51.2833958,30.9985955 C51.2833958,29.6568352 52.375,28.565387 53.7166042,28.565387 C55.0582085,28.565387 56.1498127,29.6568352 56.1498127,30.9985955 C56.1498127,32.3403558 55.0582085,33.431804 53.7166042,33.431804 Z" id="Shape" fill="#000044" fill-rule="nonzero"></path>
                <path d="M28.8230337,37.8700062 C26.1905431,37.8700062 24.0488452,40.0117041 24.0488452,42.6441948 C24.0488452,45.2766854 26.1905431,47.4183833 28.8230337,47.4183833 C31.4555243,47.4183833 33.5972222,45.2766854 33.5972222,42.6441948 C33.5972222,40.0117041 31.4555243,37.8700062 28.8230337,37.8700062 Z M28.8230337,45.0774032 C27.4812734,45.0774032 26.3898252,43.9859551 26.3898252,42.6441948 C26.3898252,41.3024345 27.4812734,40.2109863 28.8230337,40.2109863 C30.164638,40.2109863 31.2562422,41.3024345 31.2562422,42.6441948 C31.2562422,43.9859551 30.164638,45.0774032 28.8230337,45.0774032 Z" id="Shape" fill="#000044" fill-rule="nonzero"></path>
                <path d="M16.238764,26.224407 C13.6062734,26.224407 11.4645755,28.3661049 11.4645755,30.9985955 C11.4645755,33.6310861 13.6062734,35.772784 16.238764,35.772784 C18.8712547,35.772784 21.0129526,33.6310861 21.0129526,30.9985955 C21.0129526,28.3661049 18.8712547,26.224407 16.238764,26.224407 Z M16.238764,33.431804 C14.8970037,33.431804 13.8055556,32.3403558 13.8055556,30.9985955 C13.8055556,29.6568352 14.8970037,28.565387 16.238764,28.565387 C17.5803683,28.565387 18.6719725,29.6568352 18.6719725,30.9985955 C18.6719725,32.3401998 17.5803683,33.431804 16.238764,33.431804 Z" id="Shape" fill="#000044" fill-rule="nonzero"></path>
                <path d="M16.238764,37.8700062 C13.6062734,37.8700062 11.4645755,40.0117041 11.4645755,42.6441948 C11.4645755,45.2766854 13.6062734,47.4183833 16.238764,47.4183833 C18.8712547,47.4183833 21.0129526,45.2766854 21.0129526,42.6441948 C21.0129526,40.0117041 18.8712547,37.8700062 16.238764,37.8700062 Z M16.238764,45.0774032 C14.8970037,45.0774032 13.8055556,43.9859551 13.8055556,42.6441948 C13.8055556,41.3024345 14.8970037,40.2109863 16.238764,40.2109863 C17.5803683,40.2109863 18.6719725,41.3024345 18.6719725,42.6441948 C18.6719725,43.9859551 17.5803683,45.0774032 16.238764,45.0774032 Z" id="Shape" fill="#000044" fill-rule="nonzero"></path>
                <path d="M53.7166042,37.8700062 C51.0841136,37.8700062 48.9424157,40.0117041 48.9424157,42.6441948 C48.9424157,45.2766854 51.0841136,47.4183833 53.7166042,47.4183833 C56.3490949,47.4183833 58.4907928,45.2766854 58.4907928,42.6441948 C58.4906367,40.0117041 56.3489388,37.8700062 53.7166042,37.8700062 Z M53.7166042,45.0774032 C52.3748439,45.0774032 51.2833958,43.9859551 51.2833958,42.6441948 C51.2833958,41.3024345 52.375,40.2109863 53.7166042,40.2109863 C55.0582085,40.2109863 56.1498127,41.3024345 56.1498127,42.6441948 C56.1496567,43.9859551 55.0582085,45.0774032 53.7166042,45.0774032 Z" id="Shape" fill="#000044" fill-rule="nonzero"></path>
                <path d="M41.269819,37.8700062 C38.6373283,37.8700062 36.4954744,40.0117041 36.4954744,42.6441948 C36.4954744,45.2766854 38.6373283,47.4183833 41.269819,47.4183833 C43.9023096,47.4183833 46.0440075,45.2766854 46.0440075,42.6441948 C46.0440075,40.0117041 43.9023096,37.8700062 41.269819,37.8700062 Z M41.269819,45.0774032 C39.9279026,45.0774032 38.8364544,43.9859551 38.8364544,42.6441948 C38.8364544,41.3024345 39.9280587,40.2109863 41.269819,40.2109863 C42.6115793,40.2109863 43.7030275,41.3024345 43.7030275,42.6441948 C43.7030275,43.9859551 42.6114232,45.0774032 41.269819,45.0774032 Z" id="Shape" fill="#000044" fill-rule="nonzero"></path>
                <path d="M41.269819,49.5156055 C38.6373283,49.5156055 36.4956305,51.6574594 36.4956305,54.2899501 C36.4956305,56.9224407 38.6373283,59.0641386 41.269819,59.0641386 C43.9023096,59.0641386 46.0440075,56.9224407 46.0440075,54.2899501 C46.0440075,51.6574594 43.9023096,49.5156055 41.269819,49.5156055 Z M41.269819,56.7230025 C39.9279026,56.7230025 38.8364544,55.6315543 38.8364544,54.289794 C38.8366105,52.9481898 39.9280587,51.8564295 41.269819,51.8564295 C42.6115793,51.8564295 43.7030275,52.9478777 43.7030275,54.289794 C43.7030275,55.6315543 42.6114232,56.7230025 41.269819,56.7230025 Z" id="Shape" fill="#000044" fill-rule="nonzero"></path>
                <path d="M19.6792681,55.7762172 L17.9587625,54.0557116 L19.6792681,52.335206 C20.1360409,51.8781211 20.1360409,51.1371723 19.678956,50.6797753 C19.221715,50.2228464 18.4807662,50.2228464 18.0235253,50.6797753 L16.3030197,52.4002809 L14.582514,50.6797753 C14.1252731,50.2228464 13.3843243,50.2228464 12.9270833,50.6797753 C12.4699984,51.1370162 12.4699984,51.877965 12.9270833,52.335206 L14.647589,54.0557116 L12.9270833,55.7762172 C12.4699984,56.2334582 12.4699984,56.974407 12.9270833,57.4316479 C13.1557038,57.6601124 13.4553293,57.7743446 13.7547987,57.7743446 C14.0542681,57.7743446 14.3538936,57.6601124 14.582514,57.4316479 L16.3030197,55.7111423 L18.0235253,57.4316479 C18.2521458,57.6601124 18.5517712,57.7743446 18.8512406,57.7743446 C19.15071,57.7743446 19.4503355,57.6601124 19.678956,57.4316479 C20.136353,56.9742509 20.136353,56.2333021 19.6792681,55.7762172 Z" id="Path" fill="#FF5300"></path>
                <path d="M32.2635378,55.8536205 L30.5430321,54.1331149 L32.2635378,52.4126092 C32.7203105,51.9555243 32.7203105,51.2145755 32.2632257,50.7571785 C31.8059847,50.3002497 31.0650359,50.3002497 30.6077949,50.7571785 L28.8872893,52.4776841 L27.1667837,50.7571785 C26.7095428,50.3002497 25.9685939,50.3002497 25.511353,50.7571785 C25.0542681,51.2144195 25.0542681,51.9553683 25.511353,52.4126092 L27.2318586,54.1331149 L25.511353,55.8536205 C25.0542681,56.3108614 25.0542681,57.0518102 25.511353,57.5090512 C25.7399735,57.7375156 26.0395989,57.8517478 26.3390684,57.8517478 C26.6385378,57.8517478 26.9381632,57.7375156 27.1667837,57.5090512 L28.8872893,55.7885456 L30.6077949,57.5090512 C30.8364154,57.7375156 31.1360409,57.8517478 31.4355103,57.8517478 C31.7349797,57.8517478 32.0346052,57.7375156 32.2632257,57.5090512 C32.7206227,57.0516542 32.7206227,56.3107054 32.2635378,55.8536205 Z" id="Path-Copy" fill="#FF5300"></path>
                <path d="M79.8328652,59.4923533 L76.6407615,42.6938202 C76.5201311,42.0588327 75.9060549,41.6418539 75.2721598,41.7624844 C74.6371723,41.8831149 74.2201935,42.4957865 74.340824,43.1310861 L77.5329276,59.9296192 C77.7114544,60.8698502 76.917603,61.7573346 75.8362984,61.7573346 L58.5157615,61.7573346 L69.7501561,50.5230961 C69.9556804,50.3175718 70.0928527,50.0173221 70.0928527,49.6953808 L70.0928527,20.7760612 L73.3027466,37.6686954 C73.423377,38.3036829 74.0366729,38.7208177 74.6711923,38.6000312 C75.3061798,38.4794007 75.7231586,37.8667291 75.6025281,37.2314295 L70.085206,8.1963171 C70.005774,6.46894507 68.5797441,5.08723471 66.8333333,5.08723471 L56.5758427,5.08723471 L56.5758427,1.32365793 C56.5758427,0.677122347 56.0519663,0.153245943 55.4054307,0.153245943 C54.7588951,0.153245943 54.2350187,0.677122347 54.2350187,1.32365793 L54.2350187,5.08707865 L46.3963795,5.08707865 L46.3963795,1.32365793 C46.3963795,0.677122347 45.8725031,0.153245943 45.2259675,0.153245943 C44.579432,0.153245943 44.0555556,0.677122347 44.0555556,1.32365793 L44.0555556,5.08707865 L36.2167603,5.08707865 L36.2167603,1.32365793 C36.2167603,0.677122347 35.6928839,0.153245943 35.0463483,0.153245943 C34.3998127,0.153245943 33.8759363,0.677122347 33.8759363,1.32365793 L33.8759363,5.08707865 L26.0372971,5.08707865 L26.0372971,1.32365793 C26.0372971,0.677122347 25.5134207,0.153245943 24.8668851,0.153245943 C24.2203496,0.153245943 23.6964732,0.677122347 23.6964732,1.32365793 L23.6964732,5.08707865 L15.857834,5.08707865 L15.857834,1.32365793 C15.857834,0.677122347 15.3339576,0.153245943 14.687422,0.153245943 C14.0408864,0.153245943 13.51701,0.677122347 13.51701,1.32365793 L13.51701,5.08707865 L3.25951935,5.08707865 C1.46223471,5.08723471 0,6.54931336 0,8.34675406 L0,64.0031211 C0,65.8004057 1.46223471,67.2624844 3.25951935,67.2624844 L32.315387,67.2624844 C32.9619226,67.2624844 33.485799,66.738608 33.485799,66.0920724 C33.485799,65.4455368 32.9619226,64.9216604 32.315387,64.9216604 L3.25951935,64.9216604 C2.7531211,64.9216604 2.34098002,64.5096754 2.34098002,64.0032772 L2.34098002,20.284176 L67.7520287,20.284176 L67.7520287,48.5245006 L54.6143883,48.5245006 C52.8171036,48.5245006 51.355025,49.9867353 51.355025,51.78402 L51.355025,64.9215044 L37.7774657,64.9215044 C37.1309301,64.9215044 36.6070537,65.4453808 36.6070537,66.0919164 C36.6070537,66.7384519 37.1309301,67.2623283 37.7774657,67.2623283 L52.525437,67.2623283 C52.8274032,67.2623283 53.1301498,67.1426342 53.3531523,66.9196317 L56.1746255,64.0981586 L75.8364544,64.0981586 C78.3785893,64.0981586 80.2876092,61.8849875 79.8328652,59.4923533 Z M2.34098002,17.943196 L2.34098002,8.34675406 C2.34098002,7.84035581 2.7531211,7.42821473 3.25951935,7.42821473 L13.51701,7.42821473 L13.51701,12.6857054 C13.51701,13.3322409 14.0408864,13.8561174 14.687422,13.8561174 C15.3339576,13.8561174 15.857834,13.3322409 15.857834,12.6857054 L15.857834,7.42821473 L23.6964732,7.42821473 L23.6964732,12.6857054 C23.6964732,13.3322409 24.2203496,13.8561174 24.8668851,13.8561174 C25.5134207,13.8561174 26.0372971,13.3322409 26.0372971,12.6857054 L26.0372971,7.42821473 L33.8759363,7.42821473 L33.8759363,12.6857054 C33.8759363,13.3322409 34.3998127,13.8561174 35.0463483,13.8561174 C35.6928839,13.8561174 36.2167603,13.3322409 36.2167603,12.6857054 L36.2167603,7.42821473 L44.0555556,7.42821473 L44.0555556,12.6857054 C44.0555556,13.3322409 44.579432,13.8561174 45.2259675,13.8561174 C45.8725031,13.8561174 46.3963795,13.3322409 46.3963795,12.6857054 L46.3963795,7.42821473 L54.2350187,7.42821473 L54.2350187,12.6857054 C54.2350187,13.3322409 54.7588951,13.8561174 55.4054307,13.8561174 C56.0519663,13.8561174 56.5758427,13.3322409 56.5758427,12.6857054 L56.5758427,7.42821473 L66.8333333,7.42821473 C67.3397316,7.42821473 67.7518727,7.84035581 67.7518727,8.34675406 L67.7518727,17.9433521 L2.34098002,17.9433521 L2.34098002,17.943196 Z M53.6958489,63.2662297 L53.6958489,51.784176 C53.6958489,51.2777778 54.107834,50.8656367 54.6142322,50.8656367 L66.0964419,50.8656367 C64.9252497,52.036985 54.8695381,62.0925406 53.6958489,63.2662297 Z" id="Shape" fill="#000044" fill-rule="nonzero"></path>
            </g>
        </g>
    </g>
</svg>